<svg width="457" height="382" viewBox="0 0 457 382" fill="none" xmlns="http://www.w3.org/2000/svg">
<path d="M158.136 8.4764C123.413 15.9721 111.604 51.4205 110.04 68.2078C103.002 166.589 37.0789 126.757 10.3293 193.527C-2.30342 225.059 -4.53753 261.366 10.3293 289.475C18.4299 304.791 64.6733 353.982 144.442 348.035C224.21 342.089 205.401 382 331.749 382C397.058 382 443.19 343.35 454.921 304.791C461.512 283.126 451.011 257.162 443.19 246.231C429.114 213.347 397.206 205.239 429.114 167.76C461.021 130.282 437.716 85.7759 422.075 68.2078C411.127 58.0574 377.733 38.2251 331.749 40.099C274.269 42.4414 269.577 33.0717 242.596 21.3596C215.616 9.6476 201.539 -0.893231 158.136 8.4764Z" fill="#D7E5F5"/>
<path d="M418.023 266.766C418.023 306.713 380.805 339.122 334.93 339.122H122.581C81.7848 339.122 48.7207 310.331 48.7207 274.806C48.7207 243.703 74.1103 217.725 107.809 211.796C105.443 206.42 104.116 200.541 104.116 194.411C104.116 167.78 128.929 146.173 159.512 146.173C170.879 146.173 181.497 149.188 190.268 154.313C206.251 130.195 236.084 114.015 270.302 114.015C321.312 114.015 362.628 149.992 362.628 194.411C362.628 195.767 362.57 197.124 362.513 198.481C394.827 208.379 418.023 235.211 418.023 266.766Z" fill="#303FC3"/>
<path d="M381.97 280.236C381.97 312.746 351.626 339.123 314.224 339.123H141.095C107.834 339.123 80.8763 315.69 80.8763 286.779C80.8763 261.465 101.577 240.323 129.051 235.498C127.122 231.122 126.04 226.338 126.04 221.348C126.04 199.675 146.27 182.09 171.204 182.09C180.473 182.09 189.129 184.544 196.28 188.715C209.312 169.086 233.634 155.918 261.533 155.918C303.121 155.918 336.806 185.198 336.806 221.348C336.806 222.453 336.759 223.557 336.712 224.661C363.058 232.717 381.97 254.554 381.97 280.236Z" fill="#4250CF"/>
<rect x="159.355" y="217.837" width="200.213" height="135.756" rx="8.5" fill="#A0CAFA" stroke="#191847" stroke-width="3"/>
<path d="M153.239 352.291H370.996C376.242 352.291 380.496 356.544 380.496 361.791V366.883H143.739V361.791C143.739 356.544 147.992 352.291 153.239 352.291Z" fill="#191847" stroke="#425A76"/>
<path d="M232.612 21.7812C233.485 22.8634 234.32 23.9774 235.116 25.1211H235.117L234.295 25.6924C235.075 26.8137 235.817 27.9641 236.517 29.1416L237.376 28.6309C238.085 29.8247 238.753 31.0462 239.378 32.293L238.486 32.7412C239.097 33.9607 239.668 35.2046 240.193 36.4717L241.115 36.0889C241.646 37.3699 242.133 38.6739 242.574 39.999L241.627 40.3145C242.057 41.6072 242.442 42.9203 242.781 44.252L243.749 44.0059C244.09 45.3468 244.386 46.7059 244.632 48.082V48.083L243.648 48.2598C243.888 49.5986 244.082 50.9538 244.227 52.3232L245.22 52.2168C245.366 53.5906 245.465 54.9784 245.514 56.3789L244.516 56.4141C244.54 57.0962 244.552 57.7817 244.552 58.4697C244.552 59.1577 244.54 59.8433 244.516 60.5254L245.514 60.5596C245.465 61.9597 245.366 63.3473 245.22 64.7207L244.227 64.6162C244.082 65.9856 243.888 67.3409 243.648 68.6797L244.632 68.8555C244.386 70.2319 244.09 71.5914 243.749 72.9326L242.781 72.6865C242.442 74.0182 242.057 75.3314 241.627 76.624L242.574 76.9395C242.133 78.2643 241.646 79.5678 241.115 80.8486L240.193 80.4668C239.668 81.7339 239.097 82.9787 238.486 84.1982L239.378 84.6455C238.753 85.892 238.085 87.113 237.376 88.3066L236.517 87.7969C235.817 88.9745 235.075 90.1247 234.295 91.2461L235.117 91.8174C234.321 92.9611 233.485 94.0741 232.612 95.1562L231.835 94.5293C230.975 95.5944 230.079 96.6284 229.147 97.6289L229.878 98.3096C228.929 99.3281 227.945 100.313 226.926 101.262L226.246 100.53C225.245 101.462 224.211 102.359 223.146 103.219L223.773 103.996C222.691 104.869 221.577 105.704 220.433 106.5L219.864 105.681C218.743 106.461 217.592 107.202 216.415 107.902L216.924 108.761C215.731 109.47 214.51 110.138 213.263 110.764L212.816 109.871C211.596 110.483 210.352 111.053 209.085 111.578L209.466 112.5C208.186 113.031 206.882 113.518 205.557 113.959L205.243 113.012C203.95 113.442 202.636 113.828 201.304 114.167L201.55 115.135C200.209 115.476 198.85 115.771 197.473 116.018L197.297 115.034C195.959 115.274 194.603 115.469 193.234 115.614L193.338 116.606C191.965 116.752 190.577 116.851 189.177 116.9L189.143 115.902C188.461 115.926 187.776 115.938 187.087 115.938C186.399 115.938 185.714 115.926 185.032 115.902L184.997 116.9C183.596 116.851 182.209 116.752 180.836 116.606L180.941 115.614C179.571 115.469 178.216 115.274 176.878 115.034L176.701 116.018C175.324 115.771 173.965 115.476 172.624 115.135L172.871 114.167C171.539 113.828 170.225 113.442 168.932 113.012L168.617 113.959C167.292 113.518 165.988 113.031 164.707 112.5L165.09 111.578C163.823 111.053 162.578 110.483 161.359 109.871L160.911 110.764C159.664 110.138 158.443 109.471 157.25 108.761L157.76 107.902C156.583 107.202 155.432 106.461 154.311 105.681L153.741 106.5C152.597 105.704 151.483 104.869 150.401 103.996L151.029 103.219C149.964 102.359 148.93 101.462 147.929 100.53L147.248 101.262C146.229 100.313 145.245 99.3281 144.296 98.3096L145.028 97.6289C144.096 96.6284 143.2 95.5944 142.34 94.5293L141.562 95.1562C140.689 94.0741 139.853 92.9611 139.057 91.8174L139.878 91.2461C139.099 90.1248 138.358 88.9743 137.658 87.7969L136.798 88.3066C136.089 87.113 135.421 85.892 134.795 84.6455L135.689 84.1982C135.077 82.9787 134.507 81.7339 133.982 80.4668L133.059 80.8486C132.528 79.5678 132.041 78.2643 131.6 76.9395L132.548 76.624C132.118 75.3314 131.733 74.0182 131.394 72.6865L130.425 72.9326C130.084 71.5914 129.788 70.2319 129.542 68.8555L130.527 68.6797C130.287 67.3409 130.093 65.9856 129.948 64.6162L128.954 64.7207C128.808 63.3473 128.709 61.9597 128.66 60.5596L129.659 60.5254C129.647 60.1842 129.637 59.8418 129.631 59.499L129.623 58.4697C129.623 57.7817 129.635 57.0962 129.659 56.4141L128.66 56.3789C128.709 54.9784 128.808 53.5905 128.954 52.2168L129.948 52.3232C130.093 50.9538 130.287 49.5986 130.527 48.2598L129.543 48.083L129.542 48.082C129.788 46.7059 130.084 45.3467 130.425 44.0059L131.394 44.252C131.733 42.9203 132.118 41.6072 132.548 40.3145L131.6 39.999C132.041 38.6739 132.528 37.3699 133.059 36.0889L133.982 36.4717C134.507 35.2046 135.077 33.9607 135.689 32.7412L134.795 32.293C135.421 31.0462 136.089 29.8247 136.798 28.6309L137.658 29.1416C138.358 27.9641 139.099 26.8137 139.878 25.6924L139.058 25.1211C139.844 23.9915 140.668 22.8909 141.53 21.8213L141.562 21.7812L142.34 22.4092C143.2 21.3441 144.096 20.3101 145.028 19.3096L144.296 18.6279C145.245 17.6096 146.228 16.6243 147.247 15.6758L147.248 15.6768L147.929 16.4082C148.93 15.4761 149.964 14.5793 151.029 13.7197L150.401 12.9414C151.325 12.1954 152.273 11.4767 153.243 10.7871L153.741 10.4375L154.311 11.2578C155.432 10.4778 156.583 9.73727 157.76 9.03711L157.25 8.17773C158.443 7.4679 159.664 6.7991 160.911 6.17383L161.359 7.06738C162.578 6.45569 163.823 5.88585 165.09 5.36035L164.707 4.4375C165.988 3.9062 167.292 3.41943 168.617 2.97852L168.932 3.92676C170.225 3.49659 171.539 3.11142 172.871 2.77246L172.624 1.80371C173.743 1.51873 174.876 1.26519 176.02 1.0459L176.701 0.919922L176.878 1.9043C178.216 1.66422 179.571 1.4708 180.941 1.3252L180.836 0.331055C182.209 0.185038 183.596 0.0863276 184.997 0.0371094L185.032 1.03613C185.714 1.01215 186.399 1 187.087 1C187.776 1 188.461 1.01215 189.143 1.03613L189.177 0.0371094C190.577 0.0863057 191.965 0.18506 193.338 0.331055L193.234 1.3252C194.603 1.4708 195.959 1.66423 197.297 1.9043L197.473 0.919922C198.85 1.16671 200.209 1.46237 201.55 1.80371L201.304 2.77246C202.636 3.11142 203.95 3.49659 205.243 3.92676L205.557 2.97852C206.882 3.41932 208.186 3.90636 209.466 4.4375L209.085 5.36035C210.352 5.88585 211.596 6.45569 212.816 7.06738L213.263 6.17383C214.51 6.79909 215.731 7.46791 216.924 8.17773L216.415 9.03711C217.592 9.73727 218.743 10.4778 219.864 11.2578L220.433 10.4375C221.577 11.2331 222.691 12.0682 223.773 12.9414L223.146 13.7197C224.211 14.5793 225.245 15.4761 226.246 16.4082L226.927 15.6768V15.6758C227.946 16.6243 228.929 17.6096 229.878 18.6279H229.878L229.147 19.3096C230.079 20.3101 230.975 21.3441 231.835 22.4092L232.612 21.7812Z" stroke="#ACC0D6" stroke-width="2" stroke-dasharray="4 4"/>
<path d="M232.612 21.7812C233.485 22.8634 234.32 23.9774 235.116 25.1211H235.117L234.295 25.6924C235.075 26.8137 235.817 27.9641 236.517 29.1416L237.376 28.6309C238.085 29.8247 238.753 31.0462 239.378 32.293L238.486 32.7412C239.097 33.9607 239.668 35.2046 240.193 36.4717L241.115 36.0889C241.646 37.3699 242.133 38.6739 242.574 39.999L241.627 40.3145C242.057 41.6072 242.442 42.9203 242.781 44.252L243.749 44.0059C244.09 45.3468 244.386 46.7059 244.632 48.082V48.083L243.648 48.2598C243.888 49.5986 244.082 50.9538 244.227 52.3232L245.22 52.2168C245.366 53.5906 245.465 54.9784 245.514 56.3789L244.516 56.4141C244.54 57.0962 244.552 57.7817 244.552 58.4697C244.552 59.1577 244.54 59.8433 244.516 60.5254L245.514 60.5596C245.465 61.9597 245.366 63.3473 245.22 64.7207L244.227 64.6162C244.082 65.9856 243.888 67.3409 243.648 68.6797L244.632 68.8555C244.386 70.2319 244.09 71.5914 243.749 72.9326L242.781 72.6865C242.442 74.0182 242.057 75.3314 241.627 76.624L242.574 76.9395C242.133 78.2643 241.646 79.5678 241.115 80.8486L240.193 80.4668C239.668 81.7339 239.097 82.9787 238.486 84.1982L239.378 84.6455C238.753 85.892 238.085 87.113 237.376 88.3066L236.517 87.7969C235.817 88.9745 235.075 90.1247 234.295 91.2461L235.117 91.8174C234.321 92.9611 233.485 94.0741 232.612 95.1562L231.835 94.5293C230.975 95.5944 230.079 96.6284 229.147 97.6289L229.878 98.3096C228.929 99.3281 227.945 100.313 226.926 101.262L226.246 100.53C225.245 101.462 224.211 102.359 223.146 103.219L223.773 103.996C222.691 104.869 221.577 105.704 220.433 106.5L219.864 105.681C218.743 106.461 217.592 107.202 216.415 107.902L216.924 108.761C215.731 109.47 214.51 110.138 213.263 110.764L212.816 109.871C211.596 110.483 210.352 111.053 209.085 111.578L209.466 112.5C208.186 113.031 206.882 113.518 205.557 113.959L205.243 113.012C203.95 113.442 202.636 113.828 201.304 114.167L201.55 115.135C200.209 115.476 198.85 115.771 197.473 116.018L197.297 115.034C195.959 115.274 194.603 115.469 193.234 115.614L193.338 116.606C191.965 116.752 190.577 116.851 189.177 116.9L189.143 115.902C188.461 115.926 187.776 115.938 187.087 115.938C186.399 115.938 185.714 115.926 185.032 115.902L184.997 116.9C183.596 116.851 182.209 116.752 180.836 116.606L180.941 115.614C179.571 115.469 178.216 115.274 176.878 115.034L176.701 116.018C175.324 115.771 173.965 115.476 172.624 115.135L172.871 114.167C171.539 113.828 170.225 113.442 168.932 113.012L168.617 113.959C167.292 113.518 165.988 113.031 164.707 112.5L165.09 111.578C163.823 111.053 162.578 110.483 161.359 109.871L160.911 110.764C159.664 110.138 158.443 109.471 157.25 108.761L157.76 107.902C156.583 107.202 155.432 106.461 154.311 105.681L153.741 106.5C152.597 105.704 151.483 104.869 150.401 103.996L151.029 103.219C149.964 102.359 148.93 101.462 147.929 100.53L147.248 101.262C146.229 100.313 145.245 99.3281 144.296 98.3096L145.028 97.6289C144.096 96.6284 143.2 95.5944 142.34 94.5293L141.562 95.1562C140.689 94.0741 139.853 92.9611 139.057 91.8174L139.878 91.2461C139.099 90.1248 138.358 88.9743 137.658 87.7969L136.798 88.3066C136.089 87.113 135.421 85.892 134.795 84.6455L135.689 84.1982C135.077 82.9787 134.507 81.7339 133.982 80.4668L133.059 80.8486C132.528 79.5678 132.041 78.2643 131.6 76.9395L132.548 76.624C132.118 75.3314 131.733 74.0182 131.394 72.6865L130.425 72.9326C130.084 71.5914 129.788 70.2319 129.542 68.8555L130.527 68.6797C130.287 67.3409 130.093 65.9856 129.948 64.6162L128.954 64.7207C128.808 63.3473 128.709 61.9597 128.66 60.5596L129.659 60.5254C129.647 60.1842 129.637 59.8418 129.631 59.499L129.623 58.4697C129.623 57.7817 129.635 57.0962 129.659 56.4141L128.66 56.3789C128.709 54.9784 128.808 53.5905 128.954 52.2168L129.948 52.3232C130.093 50.9538 130.287 49.5986 130.527 48.2598L129.543 48.083L129.542 48.082C129.788 46.7059 130.084 45.3467 130.425 44.0059L131.394 44.252C131.733 42.9203 132.118 41.6072 132.548 40.3145L131.6 39.999C132.041 38.6739 132.528 37.3699 133.059 36.0889L133.982 36.4717C134.507 35.2046 135.077 33.9607 135.689 32.7412L134.795 32.293C135.421 31.0462 136.089 29.8247 136.798 28.6309L137.658 29.1416C138.358 27.9641 139.099 26.8137 139.878 25.6924L139.058 25.1211C139.844 23.9915 140.668 22.8909 141.53 21.8213L141.562 21.7812L142.34 22.4092C143.2 21.3441 144.096 20.3101 145.028 19.3096L144.296 18.6279C145.245 17.6096 146.228 16.6243 147.247 15.6758L147.248 15.6768L147.929 16.4082C148.93 15.4761 149.964 14.5793 151.029 13.7197L150.401 12.9414C151.325 12.1954 152.273 11.4767 153.243 10.7871L153.741 10.4375L154.311 11.2578C155.432 10.4778 156.583 9.73727 157.76 9.03711L157.25 8.17773C158.443 7.4679 159.664 6.7991 160.911 6.17383L161.359 7.06738C162.578 6.45569 163.823 5.88585 165.09 5.36035L164.707 4.4375C165.988 3.9062 167.292 3.41943 168.617 2.97852L168.932 3.92676C170.225 3.49659 171.539 3.11142 172.871 2.77246L172.624 1.80371C173.743 1.51873 174.876 1.26519 176.02 1.0459L176.701 0.919922L176.878 1.9043C178.216 1.66422 179.571 1.4708 180.941 1.3252L180.836 0.331055C182.209 0.185038 183.596 0.0863276 184.997 0.0371094L185.032 1.03613C185.714 1.01215 186.399 1 187.087 1C187.776 1 188.461 1.01215 189.143 1.03613L189.177 0.0371094C190.577 0.0863057 191.965 0.18506 193.338 0.331055L193.234 1.3252C194.603 1.4708 195.959 1.66423 197.297 1.9043L197.473 0.919922C198.85 1.16671 200.209 1.46237 201.55 1.80371L201.304 2.77246C202.636 3.11142 203.95 3.49659 205.243 3.92676L205.557 2.97852C206.882 3.41932 208.186 3.90636 209.466 4.4375L209.085 5.36035C210.352 5.88585 211.596 6.45569 212.816 7.06738L213.263 6.17383C214.51 6.79909 215.731 7.46791 216.924 8.17773L216.415 9.03711C217.592 9.73727 218.743 10.4778 219.864 11.2578L220.433 10.4375C221.577 11.2331 222.691 12.0682 223.773 12.9414L223.146 13.7197C224.211 14.5793 225.245 15.4761 226.246 16.4082L226.927 15.6768V15.6758C227.946 16.6243 228.929 17.6096 229.878 18.6279H229.878L229.147 19.3096C230.079 20.3101 230.975 21.3441 231.835 22.4092L232.612 21.7812Z" stroke="#ACC0D6" stroke-width="2" stroke-dasharray="4 4"/>
<path d="M288.486 29.2847C289.837 29.35 291.17 29.4811 292.484 29.6743L292.339 30.6616C293.642 30.8533 294.925 31.1081 296.183 31.4224L296.424 30.4536C297.732 30.7802 299.015 31.1697 300.269 31.6187L299.933 32.5591C301.169 33.0013 302.376 33.5029 303.552 34.0601L303.978 33.1577C305.192 33.7331 306.374 34.3663 307.519 35.0542L307.005 35.9097C308.128 36.5839 309.215 37.3123 310.262 38.0903L310.858 37.2876C311.934 38.0872 312.97 38.9382 313.961 39.8374L313.291 40.5786C314.259 41.4567 315.183 42.3819 316.061 43.3501L316.801 42.6782C317.7 43.6696 318.551 44.7055 319.35 45.7817L318.549 46.3784C319.327 47.4256 320.055 48.512 320.729 49.6343L321.584 49.1206C322.272 50.2657 322.905 51.4473 323.48 52.6616L322.579 53.0894C323.136 54.2653 323.637 55.4729 324.08 56.7085L325.018 56.3716C325.467 57.6258 325.857 58.9079 326.183 60.2153L325.215 60.4575C325.53 61.7161 325.784 62.9984 325.976 64.3013L326.962 64.1558C327.156 65.4696 327.288 66.8034 327.353 68.1548L326.356 68.2026C326.387 68.8522 326.403 69.5061 326.403 70.1636C326.403 70.821 326.387 71.475 326.356 72.1245L327.353 72.1714C327.288 73.5227 327.156 74.8566 326.962 76.1704L325.976 76.0259C325.784 77.3286 325.53 78.6112 325.215 79.8696L326.183 80.1108C325.857 81.4183 325.467 82.7004 325.018 83.9546L324.08 83.6187C323.637 84.8543 323.136 86.0618 322.579 87.2378L323.48 87.6646C322.905 88.8789 322.272 90.0605 321.584 91.2056L320.729 90.6919C320.055 91.8144 319.327 92.9014 318.549 93.9487L319.35 94.5444C318.551 95.6207 317.7 96.6566 316.801 97.6479L316.061 96.9771C315.183 97.9452 314.259 98.8705 313.291 99.7485L313.961 100.489C312.97 101.388 311.934 102.239 310.858 103.039L310.262 102.237C309.215 103.015 308.128 103.743 307.005 104.417L307.519 105.272C306.374 105.96 305.192 106.593 303.978 107.168L303.552 106.267C302.376 106.824 301.169 107.326 299.933 107.768L300.269 108.708C299.015 109.156 297.732 109.545 296.424 109.872L296.183 108.904C294.925 109.218 293.642 109.473 292.339 109.665L292.484 110.652C291.17 110.845 289.837 110.976 288.486 111.042L288.438 110.044C287.789 110.076 287.135 110.092 286.478 110.092C285.821 110.092 285.167 110.076 284.517 110.044L284.468 111.042C283.117 110.976 281.784 110.845 280.47 110.652L280.616 109.665C279.313 109.473 278.031 109.218 276.772 108.904L276.53 109.872C275.222 109.545 273.94 109.156 272.685 108.707L273.023 107.768C271.787 107.326 270.58 106.824 269.404 106.267L268.976 107.168C267.762 106.593 266.58 105.96 265.435 105.272L265.95 104.417C264.827 103.743 263.74 103.015 262.693 102.237L262.097 103.039C261.021 102.239 259.985 101.388 258.994 100.489L259.665 99.7485C258.696 98.8705 257.772 97.9452 256.894 96.9771L256.153 97.6479C255.254 96.6564 254.404 95.6199 253.604 94.5435L254.406 93.9487C253.628 92.9014 252.9 91.8144 252.226 90.6919L251.37 91.2056C250.682 90.0605 250.049 88.8789 249.474 87.6646L250.376 87.2378C249.819 86.0618 249.318 84.8543 248.875 83.6187L247.936 83.9546C247.487 82.7004 247.097 81.4182 246.771 80.1108L247.74 79.8696C247.426 78.6112 247.171 77.3286 246.979 76.0259L245.992 76.1704C245.798 74.8566 245.667 73.5227 245.602 72.1714L246.599 72.1245C246.583 71.7998 246.572 71.4737 246.564 71.147L246.552 70.1636C246.552 69.5061 246.568 68.8522 246.599 68.2026L245.602 68.1548C245.667 66.8035 245.798 65.4696 245.992 64.1558L246.979 64.3013C247.171 62.9984 247.426 61.7161 247.74 60.4575L246.771 60.2153C247.097 58.9079 247.487 57.6258 247.936 56.3716L248.875 56.7085C249.318 55.4729 249.819 54.2653 250.376 53.0894L249.474 52.6616C250.049 51.4473 250.682 50.2657 251.37 49.1206L252.226 49.6343C252.9 48.512 253.628 47.4256 254.406 46.3784L253.604 45.7827C254.404 44.7063 255.254 43.6698 256.153 42.6782L256.894 43.3501C257.772 42.3819 258.696 41.4567 259.665 40.5786L258.994 39.8374C259.985 38.9382 261.021 38.0872 262.097 37.2876L262.693 38.0903C263.74 37.3123 264.827 36.5839 265.95 35.9097L265.435 35.0542C266.58 34.3663 267.762 33.7332 268.976 33.1577L269.404 34.0601C270.58 33.5029 271.787 33.0013 273.023 32.5591L272.685 31.6196C273.94 31.1706 275.222 30.7802 276.53 30.4536L276.772 31.4224C278.031 31.1081 279.313 30.8533 280.616 30.6616L280.47 29.6743C281.784 29.4811 283.117 29.35 284.468 29.2847L284.517 30.2817C285.167 30.2503 285.821 30.2349 286.478 30.2349C287.135 30.2349 287.789 30.2504 288.438 30.2817L288.486 29.2847Z" stroke="#ACC0D6" stroke-width="2" stroke-dasharray="4 4"/>
<path d="M288.486 29.2847C289.837 29.35 291.17 29.4811 292.484 29.6743L292.339 30.6616C293.642 30.8533 294.925 31.1081 296.183 31.4224L296.424 30.4536C297.732 30.7802 299.015 31.1697 300.269 31.6187L299.933 32.5591C301.169 33.0013 302.376 33.5029 303.552 34.0601L303.978 33.1577C305.192 33.7331 306.374 34.3663 307.519 35.0542L307.005 35.9097C308.128 36.5839 309.215 37.3123 310.262 38.0903L310.858 37.2876C311.934 38.0872 312.97 38.9382 313.961 39.8374L313.291 40.5786C314.259 41.4567 315.183 42.3819 316.061 43.3501L316.801 42.6782C317.7 43.6696 318.551 44.7055 319.35 45.7817L318.549 46.3784C319.327 47.4256 320.055 48.512 320.729 49.6343L321.584 49.1206C322.272 50.2657 322.905 51.4473 323.48 52.6616L322.579 53.0894C323.136 54.2653 323.637 55.4729 324.08 56.7085L325.018 56.3716C325.467 57.6258 325.857 58.9079 326.183 60.2153L325.215 60.4575C325.53 61.7161 325.784 62.9984 325.976 64.3013L326.962 64.1558C327.156 65.4696 327.288 66.8034 327.353 68.1548L326.356 68.2026C326.387 68.8522 326.403 69.5061 326.403 70.1636C326.403 70.821 326.387 71.475 326.356 72.1245L327.353 72.1714C327.288 73.5227 327.156 74.8566 326.962 76.1704L325.976 76.0259C325.784 77.3286 325.53 78.6112 325.215 79.8696L326.183 80.1108C325.857 81.4183 325.467 82.7004 325.018 83.9546L324.08 83.6187C323.637 84.8543 323.136 86.0618 322.579 87.2378L323.48 87.6646C322.905 88.8789 322.272 90.0605 321.584 91.2056L320.729 90.6919C320.055 91.8144 319.327 92.9014 318.549 93.9487L319.35 94.5444C318.551 95.6207 317.7 96.6566 316.801 97.6479L316.061 96.9771C315.183 97.9452 314.259 98.8705 313.291 99.7485L313.961 100.489C312.97 101.388 311.934 102.239 310.858 103.039L310.262 102.237C309.215 103.015 308.128 103.743 307.005 104.417L307.519 105.272C306.374 105.96 305.192 106.593 303.978 107.168L303.552 106.267C302.376 106.824 301.169 107.326 299.933 107.768L300.269 108.708C299.015 109.156 297.732 109.545 296.424 109.872L296.183 108.904C294.925 109.218 293.642 109.473 292.339 109.665L292.484 110.652C291.17 110.845 289.837 110.976 288.486 111.042L288.438 110.044C287.789 110.076 287.135 110.092 286.478 110.092C285.821 110.092 285.167 110.076 284.517 110.044L284.468 111.042C283.117 110.976 281.784 110.845 280.47 110.652L280.616 109.665C279.313 109.473 278.031 109.218 276.772 108.904L276.53 109.872C275.222 109.545 273.94 109.156 272.685 108.707L273.023 107.768C271.787 107.326 270.58 106.824 269.404 106.267L268.976 107.168C267.762 106.593 266.58 105.96 265.435 105.272L265.95 104.417C264.827 103.743 263.74 103.015 262.693 102.237L262.097 103.039C261.021 102.239 259.985 101.388 258.994 100.489L259.665 99.7485C258.696 98.8705 257.772 97.9452 256.894 96.9771L256.153 97.6479C255.254 96.6564 254.404 95.6199 253.604 94.5435L254.406 93.9487C253.628 92.9014 252.9 91.8144 252.226 90.6919L251.37 91.2056C250.682 90.0605 250.049 88.8789 249.474 87.6646L250.376 87.2378C249.819 86.0618 249.318 84.8543 248.875 83.6187L247.936 83.9546C247.487 82.7004 247.097 81.4182 246.771 80.1108L247.74 79.8696C247.426 78.6112 247.171 77.3286 246.979 76.0259L245.992 76.1704C245.798 74.8566 245.667 73.5227 245.602 72.1714L246.599 72.1245C246.583 71.7998 246.572 71.4737 246.564 71.147L246.552 70.1636C246.552 69.5061 246.568 68.8522 246.599 68.2026L245.602 68.1548C245.667 66.8035 245.798 65.4696 245.992 64.1558L246.979 64.3013C247.171 62.9984 247.426 61.7161 247.74 60.4575L246.771 60.2153C247.097 58.9079 247.487 57.6258 247.936 56.3716L248.875 56.7085C249.318 55.4729 249.819 54.2653 250.376 53.0894L249.474 52.6616C250.049 51.4473 250.682 50.2657 251.37 49.1206L252.226 49.6343C252.9 48.512 253.628 47.4256 254.406 46.3784L253.604 45.7827C254.404 44.7063 255.254 43.6698 256.153 42.6782L256.894 43.3501C257.772 42.3819 258.696 41.4567 259.665 40.5786L258.994 39.8374C259.985 38.9382 261.021 38.0872 262.097 37.2876L262.693 38.0903C263.74 37.3123 264.827 36.5839 265.95 35.9097L265.435 35.0542C266.58 34.3663 267.762 33.7332 268.976 33.1577L269.404 34.0601C270.58 33.5029 271.787 33.0013 273.023 32.5591L272.685 31.6196C273.94 31.1706 275.222 30.7802 276.53 30.4536L276.772 31.4224C278.031 31.1081 279.313 30.8533 280.616 30.6616L280.47 29.6743C281.784 29.4811 283.117 29.35 284.468 29.2847L284.517 30.2817C285.167 30.2503 285.821 30.2349 286.478 30.2349C287.135 30.2349 287.789 30.2504 288.438 30.2817L288.486 29.2847Z" stroke="#ACC0D6" stroke-width="2" stroke-dasharray="4 4"/>
<path d="M230.701 42.821C231.263 44.3447 230.789 46.0436 229.577 47.1294L221.97 54.0299C222.163 55.4835 222.269 56.9722 222.269 58.4784C222.269 59.9845 222.163 61.4732 221.97 62.9269L229.577 69.8273C230.789 70.9131 231.263 72.612 230.701 74.1357C229.928 76.2198 228.997 78.2164 227.925 80.1429L227.1 81.5615C225.94 83.488 224.64 85.3095 223.217 87.0258C222.181 88.2868 220.459 88.7071 218.914 88.2168L209.129 85.1168C206.775 86.9207 204.175 88.4269 201.399 89.5653L199.203 99.5657C198.852 101.159 197.622 102.42 196.006 102.683C193.582 103.086 191.087 103.296 188.54 103.296C185.993 103.296 183.499 103.086 181.074 102.683C179.458 102.42 178.228 101.159 177.877 99.5657L175.681 89.5653C172.906 88.4269 170.306 86.9207 167.952 85.1168L158.185 88.2343C156.639 88.7247 154.917 88.2868 153.881 87.0433C152.458 85.327 151.158 83.5056 149.998 81.579L149.173 80.1604C148.101 78.2339 147.17 76.2373 146.397 74.1532C145.835 72.6295 146.309 70.9307 147.521 69.8448L155.128 62.9444C154.935 61.4732 154.829 59.9845 154.829 58.4784C154.829 56.9722 154.935 55.4835 155.128 54.0299L147.521 47.1294C146.309 46.0436 145.835 44.3447 146.397 42.821C147.17 40.7369 148.101 38.7403 149.173 36.8138L149.998 35.3952C151.158 33.4687 152.458 31.6472 153.881 29.9309C154.917 28.6699 156.639 28.2496 158.185 28.7399L167.969 31.8399C170.323 30.036 172.923 28.5298 175.699 27.3914L177.895 17.391C178.246 15.7973 179.476 14.5363 181.092 14.2736C183.516 13.8532 186.011 13.6431 188.558 13.6431C191.105 13.6431 193.6 13.8532 196.024 14.256C197.64 14.5188 198.87 15.7797 199.221 17.3735L201.417 27.3739C204.192 28.5123 206.792 30.0185 209.146 31.8224L218.931 28.7224C220.477 28.232 222.199 28.6699 223.235 29.9134C224.658 31.6297 225.958 33.4512 227.117 35.3777L227.943 36.7963C229.015 38.7228 229.946 40.7194 230.719 42.8035L230.701 42.821ZM188.558 72.4894C192.285 72.4894 195.86 71.0132 198.495 68.3856C201.131 65.7581 202.611 62.1943 202.611 58.4784C202.611 54.7624 201.131 51.1986 198.495 48.5711C195.86 45.9435 192.285 44.4673 188.558 44.4673C184.831 44.4673 181.256 45.9435 178.62 48.5711C175.985 51.1986 174.504 54.7624 174.504 58.4784C174.504 62.1943 175.985 65.7581 178.62 68.3856C181.256 71.0132 184.831 72.4894 188.558 72.4894Z" fill="#A0C8F7"/>
<path d="M313.61 60.6148C313.972 61.5919 313.666 62.6814 312.886 63.3778L307.99 67.8031C308.114 68.7353 308.182 69.69 308.182 70.6559C308.182 71.6218 308.114 72.5765 307.99 73.5087L312.886 77.934C313.666 78.6304 313.972 79.7199 313.61 80.697C313.112 82.0336 312.513 83.314 311.823 84.5495L311.292 85.4592C310.546 86.6947 309.709 87.8628 308.793 88.9635C308.126 89.7722 307.018 90.0417 306.023 89.7273L299.724 87.7393C298.209 88.8961 296.536 89.862 294.749 90.5921L293.336 97.0054C293.109 98.0275 292.318 98.8361 291.278 99.0046C289.717 99.263 288.112 99.3977 286.472 99.3977C284.832 99.3977 283.227 99.263 281.666 99.0046C280.626 98.8361 279.834 98.0275 279.608 97.0054L278.195 90.5921C276.408 89.862 274.735 88.8961 273.22 87.7393L266.933 89.7385C265.938 90.053 264.829 89.7722 264.162 88.9747C263.246 87.874 262.41 86.7059 261.663 85.4705L261.132 84.5607C260.442 83.3252 259.843 82.0448 259.345 80.7082C258.983 79.7311 259.289 78.6416 260.069 77.9452L264.965 73.52C264.841 72.5765 264.773 71.6218 264.773 70.6559C264.773 69.69 264.841 68.7353 264.965 67.8031L260.069 63.3778C259.289 62.6814 258.983 61.5919 259.345 60.6148C259.843 59.2782 260.442 57.9978 261.132 56.7623L261.663 55.8526C262.41 54.6171 263.246 53.449 264.162 52.3483C264.829 51.5396 265.938 51.27 266.933 51.5845L273.231 53.5725C274.746 52.4157 276.42 51.4497 278.206 50.7197L279.62 44.3064C279.846 43.2843 280.637 42.4756 281.678 42.3072C283.238 42.0376 284.844 41.9028 286.483 41.9028C288.123 41.9028 289.729 42.0376 291.289 42.2959C292.329 42.4644 293.121 43.2731 293.347 44.2952L294.76 50.7085C296.547 51.4385 298.22 52.4044 299.736 53.5613L306.034 51.5733C307.029 51.2588 308.137 51.5396 308.804 52.337C309.72 53.4378 310.557 54.6058 311.303 55.8413L311.835 56.7511C312.524 57.9866 313.124 59.267 313.621 60.6036L313.61 60.6148ZM286.483 79.6412C288.882 79.6412 291.183 78.6946 292.88 77.0095C294.576 75.3244 295.529 73.039 295.529 70.6559C295.529 68.2728 294.576 65.9874 292.88 64.3023C291.183 62.6172 288.882 61.6706 286.483 61.6706C284.084 61.6706 281.783 62.6172 280.087 64.3023C278.39 65.9874 277.437 68.2728 277.437 70.6559C277.437 73.039 278.39 75.3244 280.087 77.0095C281.783 78.6946 284.084 79.6412 286.483 79.6412Z" fill="#A0C8F7"/>
<path fill-rule="evenodd" clip-rule="evenodd" d="M67.6689 243.186C77.851 230.719 84.7404 221.477 88.3372 215.459C94.4957 205.154 99.5362 195.985 101.127 192.483C104.92 184.131 92.3945 180.22 89.5597 184.116C85.2691 190.012 76.1059 208.566 62.0702 239.777L67.6689 243.186Z" fill="#B28B67"/>
<path fill-rule="evenodd" clip-rule="evenodd" d="M88.5338 239.562L107.483 191.734C111.536 183.015 91.9639 177.284 88.9853 181.341C82.223 190.553 66.1506 226.893 64.1359 229.637L88.5338 239.562Z" fill="#2F3676"/>
<path fill-rule="evenodd" clip-rule="evenodd" d="M139.003 229.97C135.311 224.571 121.885 206.407 114.572 198.892C112.47 196.733 110.42 194.66 108.481 192.728C102.716 186.987 91.2367 196.637 96.9907 201.866C111.32 214.89 132.228 232.471 133.975 234.039C136.423 236.236 141.322 233.363 139.003 229.97Z" fill="#B28B67"/>
<path fill-rule="evenodd" clip-rule="evenodd" d="M135.967 228.583C136.709 227.675 138.049 227.438 138.916 228.225C139.602 228.847 140.309 229.56 140.621 230.103C141.319 231.316 142.256 233.876 142.256 233.876C140.853 234.689 117.031 248.48 117.031 248.48C117.031 248.48 114.171 245.789 116.139 244.303C118.108 242.817 119.389 241.796 119.389 241.796L127.804 230.171C128.134 229.714 128.776 229.621 129.222 229.965L130.638 231.058C130.638 231.058 133.127 230.841 134.354 230.131C134.865 229.835 135.454 229.21 135.967 228.583Z" fill="#E4E4E4"/>
<path fill-rule="evenodd" clip-rule="evenodd" d="M69.6402 241.146C70.737 240.732 72.0178 241.198 72.376 242.315C72.6593 243.197 72.9154 244.169 72.9154 244.795C72.9154 246.195 72.45 248.883 72.45 248.883C70.8294 248.883 43.3219 248.883 43.3219 248.883C43.3219 248.883 42.1865 245.119 44.6327 244.819C47.079 244.519 48.697 244.277 48.697 244.277L61.7797 238.429C62.2947 238.199 62.8981 238.44 63.1126 238.962L63.7934 240.617C63.7934 240.617 66.058 241.677 67.4739 241.677C68.0636 241.677 68.8839 241.432 69.6402 241.146Z" fill="#E4E4E4"/>
<path fill-rule="evenodd" clip-rule="evenodd" d="M114.302 194.123C114.302 194.123 137.926 190.264 145.95 188.845C161.197 186.149 165.643 177.923 163.014 159.973L134.922 159.973C129.346 161.588 88.322 179.945 88.322 179.945C83.4014 182.395 84.3178 189.616 85.2172 191.995C85.2722 192.141 110.103 234.753 110.103 234.753L133.084 220.074L114.259 195.852C114.259 195.852 113.513 194.346 114.302 194.123Z" fill="#5C63AB"/>
<path d="M154.252 67.2026C153.143 51.3616 131.16 54.847 126.884 62.8423C122.607 70.8376 123.115 91.1176 128.641 92.5474C130.846 93.1173 135.542 91.7187 140.321 88.8286L137.321 110.118H155.032L148.935 81.6089C152.335 77.6055 154.636 72.6999 154.252 67.2026Z" fill="#B28B67"/>
<path fill-rule="evenodd" clip-rule="evenodd" d="M133.879 54.1333C136.299 53.3931 139.813 53.142 141.29 53.3119C140.45 51.2914 140.116 49.0405 140.388 46.8487C140.652 44.719 141.601 42.9057 142.479 41.0055C142.883 40.1296 143.341 39.2586 144.025 38.5886C144.721 37.9061 145.602 37.4556 146.526 37.2406C147.472 37.0206 148.46 37.039 149.407 37.2386C149.826 37.3269 150.202 37.5191 150.613 37.6259C151.034 37.7353 151.238 37.4712 151.544 37.2057C152.28 36.566 153.359 36.2502 154.29 36.1372C155.334 36.0105 156.418 36.1685 157.415 36.513C158.385 36.8484 159.316 37.3929 160.017 38.1863C160.33 38.5394 160.613 38.9413 160.797 39.3851C160.873 39.5672 160.885 39.6751 161.066 39.7418C161.234 39.8036 161.43 39.8054 161.603 39.8642C163.275 40.4322 164.705 41.7282 165.483 43.3921C165.937 44.3629 166.152 46.072 166.093 47.9876C166.034 49.9033 164.31 54.9018 162.697 56.725C161.257 58.3523 159.141 59.4262 157.099 59.8963C158.455 61.4505 159.357 63.3925 160.024 65.3677C160.749 67.5132 161.198 69.7424 161.363 72.0138C161.521 74.1719 161.535 76.4541 161.031 78.5661C160.559 80.5412 159.55 82.1615 157.865 83.1894C157.094 83.6602 156.264 84.014 155.429 84.3373C154.606 84.6558 153.78 84.9656 152.918 85.1444C151.287 85.4826 149.407 85.4245 148.15 84.122C147.698 83.6525 147.199 83.0624 146.869 82.4888C146.75 82.2825 146.679 82.1476 146.823 81.946C146.996 81.7045 147.276 81.5195 147.498 81.3305C148.764 80.2534 149.549 78.8154 149.746 77.1066C149.947 75.3727 149.483 73.1347 147.802 72.378C145.727 71.4439 143.443 72.5161 141.599 73.5155C140.815 70.7413 139.206 68.2434 136.684 66.9708C133.893 65.563 130.69 65.3982 127.822 64.1903C127.075 63.8755 126.314 63.5182 125.763 62.8769C125.533 62.6088 125.264 62.2611 125.172 61.9066C125.051 61.4409 125.351 61.0505 125.582 60.6875C126.808 58.7625 131.459 54.8736 133.879 54.1333Z" fill="#191847"/>
<path d="M168.858 150.32C168.858 150.32 180.422 187.758 181.346 190.055C182.728 193.491 179.803 198.725 178.552 201.538C182.627 203.367 182.193 196.595 187.334 198.993C192.027 201.183 195.597 205.149 201.019 201.794C201.685 201.381 202.415 199.829 200.65 198.615C196.254 195.592 189.918 190.301 189.062 188.559C187.313 185.001 181.363 150.37 181.346 150.271L168.858 150.32ZM89.2794 164.497C84.3539 166.604 80.3179 168.931 77.1719 171.477C76.4644 172.332 75.6939 173.972 79.0225 173.238C82.3512 172.504 85.8852 171.883 86.5108 172.969C87.1361 174.054 85.2931 175.718 86.4493 177.139C87.2202 178.085 89.813 175.072 94.2266 168.1L111.83 157.691L106.207 147.936L89.2794 164.497Z" fill="#B28B67"/>
<path fill-rule="evenodd" clip-rule="evenodd" d="M145.857 97.7212L140.69 96.8323C131.793 119.12 116.26 139.371 94.0919 157.586L110.844 177.995C133.01 152.06 146.673 125.302 145.857 97.7212Z" fill="#191847"/>
<path fill-rule="evenodd" clip-rule="evenodd" d="M168.383 162.844H122.369C122.369 162.844 138.36 123.854 138.36 96.5998L152.24 94.5259C163.148 112.12 166.229 133.782 168.383 162.844Z" fill="#DDE3E9"/>
<path d="M151.622 94.5259C149.996 94.582 146.668 94.728 146.668 94.728L143.315 104.34C142.783 121.893 137.116 175.031 137.099 175.193H167.217C167.166 177.636 167.053 180.113 166.871 182.621H189.299C184.272 125.749 152.615 94.5945 152.545 94.5259L152.534 94.5356C152.532 94.5323 152.53 94.5292 152.528 94.5259H151.622Z" fill="#2F3676"/>
<path d="M164.942 145.77C164.121 156.494 162.405 169.397 158.822 175.429H167.212C167.453 164.794 166.511 154.807 164.942 145.77Z" fill="black" fill-opacity="0.1"/>
<path fill-rule="evenodd" clip-rule="evenodd" d="M160.548 156.852L145.675 149.917V156.852H160.548Z" fill="white" fill-opacity="0.2"/>
<rect x="173.446" y="227.056" width="88.6716" height="114.99" rx="20" fill="#D1E6FF"/>
<g clip-path="url(#clip0_151_1680)">
<path d="M301.83 276.651V280.514H314.557V276.651C314.557 273.093 311.709 270.212 308.193 270.212C304.677 270.212 301.83 273.093 301.83 276.651ZM296.739 280.514V276.651C296.739 270.252 301.869 265.061 308.193 265.061C314.517 265.061 319.647 270.252 319.647 276.651V280.514H320.92C323.728 280.514 326.011 282.824 326.011 285.665V301.117C326.011 303.958 323.728 306.268 320.92 306.268H295.466C292.658 306.268 290.375 303.958 290.375 301.117V285.665C290.375 282.824 292.658 280.514 295.466 280.514H296.739Z" fill="#D1E6FF"/>
<path d="M312.648 290.119C312.648 292.272 310.903 294.017 308.75 294.017C306.597 294.017 304.852 292.272 304.852 290.119C304.852 287.966 306.597 286.221 308.75 286.221C310.903 286.221 312.648 287.966 312.648 290.119Z" fill="#A0CAFA"/>
<path d="M310.42 295.131C310.42 297.591 309.672 299.586 308.75 299.586C307.827 299.586 307.079 297.591 307.079 295.131C307.079 292.67 307.827 290.676 308.75 290.676C309.672 290.676 310.42 292.67 310.42 295.131Z" fill="#A0CAFA"/>
</g>
<g clip-path="url(#clip1_151_1680)" filter="url(#filter0_d_151_1680)">
<path d="M326.916 94.5254C328.553 94.5254 330.19 94.8813 331.685 95.5576L398.699 123.995C406.528 127.305 412.365 135.029 412.329 144.354C412.151 179.661 397.631 244.26 336.311 273.623C330.368 276.47 323.464 276.47 317.52 273.623C256.2 244.26 241.68 179.661 241.502 144.354C241.467 135.029 247.303 127.305 255.133 123.995L322.182 95.5576C323.642 94.8813 325.279 94.5254 326.916 94.5254Z" fill="#EC3944"/>
<path d="M326.915 108.041C328.099 108.041 329.289 108.301 330.374 108.795L330.391 108.802L330.407 108.809L387.749 133.319L387.751 133.32C393.941 135.956 398.53 142.094 398.502 149.478C398.351 179.669 386.012 234.606 334.304 259.545H334.303C329.629 261.801 324.202 261.801 319.529 259.545H319.528C268.627 234.995 255.876 181.378 255.346 150.911L255.329 149.478C255.302 142.094 259.89 135.956 266.08 133.32L266.082 133.319L323.454 108.809L323.478 108.799L323.5 108.79C324.546 108.302 325.729 108.041 326.915 108.041Z" stroke="white" stroke-width="3"/>
<g clip-path="url(#clip2_151_1680)">
<path d="M314.472 159.42V166.366H337.357V159.42C337.357 153.023 332.236 147.843 325.915 147.843C319.593 147.843 314.472 153.023 314.472 159.42ZM305.319 166.366V159.42C305.319 147.915 314.544 138.581 325.915 138.581C337.285 138.581 346.51 147.915 346.51 159.42V166.366H348.799C353.848 166.366 357.952 170.519 357.952 175.628V203.413C357.952 208.521 353.848 212.674 348.799 212.674H303.03C297.982 212.674 293.877 208.521 293.877 203.413V175.628C293.877 170.519 297.982 166.366 303.03 166.366H305.319Z" fill="white"/>
<path d="M333.924 183.638C333.924 187.509 330.786 190.647 326.916 190.647C323.045 190.647 319.907 187.509 319.907 183.638C319.907 179.767 323.045 176.629 326.916 176.629C330.786 176.629 333.924 179.767 333.924 183.638Z" fill="#D7E5F5"/>
<path d="M329.919 192.649C329.919 197.073 328.575 200.659 326.916 200.659C325.257 200.659 323.912 197.073 323.912 192.649C323.912 188.225 325.257 184.639 326.916 184.639C328.575 184.639 329.919 188.225 329.919 192.649Z" fill="#D7E5F5"/>
</g>
</g>
<defs>
<filter id="filter0_d_151_1680" x="231.808" y="94.5254" width="190.215" height="190.229" filterUnits="userSpaceOnUse" color-interpolation-filters="sRGB">
<feFlood flood-opacity="0" result="BackgroundImageFix"/>
<feColorMatrix in="SourceAlpha" type="matrix" values="0 0 0 0 0 0 0 0 0 0 0 0 0 0 0 0 0 0 127 0" result="hardAlpha"/>
<feOffset dy="4"/>
<feGaussianBlur stdDeviation="2"/>
<feComposite in2="hardAlpha" operator="out"/>
<feColorMatrix type="matrix" values="0 0 0 0 0 0 0 0 0 0 0 0 0 0 0 0 0 0 0.25 0"/>
<feBlend mode="normal" in2="BackgroundImageFix" result="effect1_dropShadow_151_1680"/>
<feBlend mode="normal" in="SourceGraphic" in2="effect1_dropShadow_151_1680" result="shape"/>
</filter>
<clipPath id="clip0_151_1680">
<rect width="35.6357" height="41.207" fill="white" transform="translate(290.375 265.061)"/>
</clipPath>
<clipPath id="clip1_151_1680">
<rect width="182.215" height="182.23" fill="white" transform="translate(235.808 94.5254)"/>
</clipPath>
<clipPath id="clip2_151_1680">
<rect width="64.0757" height="74.0933" fill="white" transform="translate(293.877 138.581)"/>
</clipPath>
</defs>
</svg>
